<?xml version="1.0" encoding="iso-8859-1"?>
<!-- Generator: Adobe Illustrator 16.0.0, SVG Export Plug-In . SVG Version: 6.00 Build 0)  -->
<!DOCTYPE svg PUBLIC "-//W3C//DTD SVG 1.1//EN" "http://www.w3.org/Graphics/SVG/1.1/DTD/svg11.dtd">
<svg version="1.1" id="Capa_1" xmlns="http://www.w3.org/2000/svg" xmlns:xlink="http://www.w3.org/1999/xlink" x="0px" y="0px"
	 width="258.586px" height="258.586px" viewBox="0 0 258.586 258.586" style="enable-background:new 0 0 258.586 258.586;"
	 xml:space="preserve">
<g>
	<g>
		<path d="M116.716,138.067c3.992,1.59,9.971,1.837,13.244,1.837c2.785,0,7.509-0.205,11.333-1.244
			c-1.122,6.936-1.996,14.163-2.404,21.401c-0.011,0.021-0.033,0.033-0.044,0.054c-1.268,0.729-5.9,1.852-13.126,1.852
			c-7.223,0-11.853-1.122-13.131-1.852c-0.05-0.122-0.173-0.189-0.236-0.306C113.619,151.847,115.112,144.633,116.716,138.067z"/>
		<path d="M124.983,111.243c3.761,2.152,10.417,2.419,13.009,2.419c1.76,0,5.459-0.125,8.819-0.871
			c-1.519,5.816-3.051,12.362-4.373,19.355c-0.138,0.199-0.348,0.346-0.441,0.582c-1.197,0.698-5.452,1.789-12.026,1.789
			c-6.412,0-10.536-1.018-11.869-1.727C120.322,124.429,122.692,117.196,124.983,111.243z"/>
		<path d="M125.713,167.348c3.821,0,9.037-0.299,12.939-1.459c-0.188,9.429,0.493,18.729,2.478,27.309
			c-0.036,0.083-0.109,0.125-0.146,0.214c-1.366,0.908-6.951,2.368-16.024,2.368c-9.074,0-14.669-1.46-16.029-2.363
			c-0.026-0.094-0.113-0.125-0.145-0.208c0.617-10.012,1.564-19.256,2.775-27.743C115.784,167.075,122.215,167.348,125.713,167.348z
			"/>
		<path d="M108.427,199.044c4.924,1.827,12.439,2.116,16.522,2.116c4.404,0,12.822-0.325,17.655-2.566
			c2.368,7.573,5.971,14.372,11.094,19.941c-1.706,1.728-9.146,4.808-22.673,4.808c-15.224,0-22.771-3.911-23.074-5.374
			C107.959,211.36,108.146,205.107,108.427,199.044z"/>
		<path d="M165.361,88.954c-4.373,0-8.362-2.467-10.361-6.441c-0.852-1.701-1.281-3.46-1.281-5.208c0-3.323,1.402-6.399,3.933-8.667
			c2.163-1.927,4.902-2.982,7.71-2.982c6.42,0,11.655,5.223,11.655,11.648C177.017,83.725,171.781,88.954,165.361,88.954z"/>
		<path d="M126.375,70.355c-31.704,0-57.97,29.008-69.327,43.858c7.896-38.993,57.576-63.114,58.119-63.371
			c1.037-0.499,1.651-1.601,1.509-2.745c-0.134-1.139-0.981-2.074-2.11-2.31c-36.764-7.774-59.662,3.879-71.111,12.887
			c4.93-10.215,12.223-17.737,21.785-22.436c29.467-14.473,71.327,2.179,71.747,2.352c1.089,0.436,2.354,0.111,3.104-0.813
			c0.751-0.924,0.782-2.236,0.111-3.208C127,15.503,114.445,6.181,104.689,1.688c20.966-0.472,37.17,3.743,47.155,12.441
			c10.613,9.223,10.834,20.179,10.845,20.63c0,1.087,0.651,2.063,1.659,2.479c1.013,0.425,2.163,0.188,2.93-0.583
			c14.698-14.698,29.49-21.197,43.864-19.329c13.249,1.727,23.969,10.278,31.077,17.88c-25.975-10.536-56.631,7.963-58.153,8.903
			c-1.025,0.63-1.508,1.869-1.187,3.023c0.341,1.155,1.385,1.958,2.582,1.958c33.838,0,56.326,7.407,66.867,22.022
			c4.163,5.785,5.8,11.947,6.257,17.285c-1.444-2.356-3.254-4.487-5.485-6.361c-17.098-14.483-51.424-8.961-52.878-8.719
			c-1.374,0.226-2.351,1.475-2.236,2.871c0.127,1.391,1.281,2.467,2.678,2.467c6.757,0,12.352,2.372,17.129,7.254
			c10.897,11.155,14.31,32.478,15.345,45.828c-13.093-17.124-44.248-41.738-51.812-47.591c-0.104-0.079-0.221-0.1-0.336-0.163
			c0.883-2.052,1.387-4.304,1.387-6.672c0-9.385-7.655-17.023-17.03-17.023c-3.096,0-6.131,0.871-8.788,2.493
			c-3.181-4.21-8.094-6.746-13.459-6.746C134.663,56.029,127.676,62.25,126.375,70.355z"/>
		<path d="M143.126,61.404c3.742,0,7.202,1.811,9.37,4.83c-0.174,0.2-0.294,0.426-0.462,0.635c-0.263,0.342-0.504,0.688-0.746,1.045
			c-0.399,0.582-0.755,1.181-1.06,1.806c-0.189,0.373-0.384,0.74-0.547,1.129c-0.294,0.688-0.515,1.396-0.714,2.121
			c-0.084,0.352-0.198,0.682-0.283,1.034c-0.221,1.087-0.356,2.189-0.356,3.307c0,1.166,0.167,2.32,0.408,3.459
			c0.085,0.326,0.169,0.636,0.263,0.956c0.105,0.378,0.158,0.761,0.306,1.134c-1.87,1.202-4.012,1.842-6.196,1.842
			c-6.409,0-11.645-5.228-11.645-11.647C131.464,66.628,136.7,61.404,143.126,61.404z"/>
		<path d="M143.126,90.077c3.091,0,6.121-0.871,8.775-2.488c0.574,0.766,1.224,1.475,1.906,2.125
			c-0.903,2.531-2.96,8.546-5.296,16.798c-0.01,0.031-0.048,0.048-0.059,0.079c-1.055,0.666-4.766,1.696-10.461,1.696
			c-5.699,0-9.407-1.035-10.468-1.696c-0.074-0.236-0.283-0.378-0.412-0.583c4.233-10,7.803-15.706,9.002-17.485
			C138.255,89.495,140.61,90.077,143.126,90.077z"/>
		<path d="M102.652,210.75c-0.037,2.374-0.068,4.766-0.068,7.212c0,7.394,14.743,10.751,28.446,10.751
			c13.69,0,28.446-3.357,28.446-10.751c0-0.34-0.072-0.691-0.21-1.018c-0.136-0.335-0.335-0.634-0.587-0.886
			c-1.46-1.455-2.751-3.083-3.958-4.763c54.195,5.113,93.707,23.853,96.746,45.639H0C3.208,234.504,46.159,214.955,102.652,210.75z"
			/>
	</g>
</g>
<g>
</g>
<g>
</g>
<g>
</g>
<g>
</g>
<g>
</g>
<g>
</g>
<g>
</g>
<g>
</g>
<g>
</g>
<g>
</g>
<g>
</g>
<g>
</g>
<g>
</g>
<g>
</g>
<g>
</g>
</svg>
