<?xml version="1.0" encoding="UTF-8"?>
<svg width="2104.7244" height="2979.9211" xmlns="http://www.w3.org/2000/svg" xmlns:svg="http://www.w3.org/2000/svg" xmlns:xlink="http://www.w3.org/1999/xlink">
 <title>Dubai tower</title>
 <defs>
  <linearGradient id="linearGradient3007">
   <stop stop-color="#000004" id="stop3009" offset="0"/>
   <stop stop-color="#000004" stop-opacity="0" id="stop3011" offset="1"/>
  </linearGradient>
  <linearGradient y2="0.378682" x2="0.419483" y1="0.040673" x1="0.067594" id="linearGradient3013" xlink:href="#linearGradient3007"/>
 </defs>
 <metadata id="metadata7">image/svg+xml</metadata>
 <g>
  <title>Layer 1</title>
  <g id="layer1">
   <g id="g3039">
    <rect fill="url(#linearGradient3013)" stroke="#0000e9" stroke-width="0" stroke-miterlimit="4" id="rect3005" width="2056.1047" height="2914.5183" x="9.201209" y="14.819726" ry="1.245142"/>
    <g id="g3015">
     <path fill="#000000" stroke="#000000" stroke-width="1px" id="path3047" d="m1074.841189,312.217744l0,351.90968l3.6131,-0.7226l9.3939,-0.72261l6.5034,0.72261l5.7809,2.16782l8.6713,5.05825l-0.7226,-136.57275l-11.5617,-8.67129l0,-138.74057l-10.8391,-7.22607l0.7226,-60.699l-11.5618,-6.50347z"/>
     <path fill="#000000" stroke="#000000" stroke-width="1px" id="path3049" d="m1074.118589,312.940354l-6.5034,4.33564l0,-41.91121l-12.2843,7.94868l0,141.631l-10.8392,12.28432l-0.7226,178.48396l5.7809,-2.16782l5.7809,-1.44521l8.6712,-2.16782l10.1165,0l0,-296.99154z"/>
     <path fill="#000000" stroke="#000000" stroke-width="1px" id="path3053" d="m1082.789889,316.553384l0.7226,-93.21632l-5.7808,0.72261l-0.7226,-26.01386l-1.4452,0l0,-16.61996l-5.0583,-0.72261l0.7226,18.06518l-4.3356,0.72261l0.7226,117.78496l6.5034,-5.05825l8.6713,4.33564z"/>
     <path fill="#000000" stroke="#000000" stroke-width="1px" id="path3055" d="m1071.950789,179.258024l0,-102.61021l2.5291,0.3613l0,104.05543l-2.5291,-1.80652z"/>
     <path fill="#000000" stroke="#000000" stroke-width="1px" id="path3057" d="m1072.841189,664.127426l0.7227,96.8293l12.2843,5.0583l17.3425,8.6713l13.7296,7.2261l-1.4452,-105.5007l-8.6713,-4.3356l-9.3939,-6.5035l-7.2261,-2.8904l-8.6713,0l-8.6713,1.4452z"/>
     <path fill="#000000" stroke="#000000" stroke-width="1px" id="path3059" d="m1074.118589,609.931894l0,151.7475l-12.2843,6.50346l-7.2261,5.05825l-13.0069,6.50347l-10.8391,7.94868l-0.7226,-163.30922l3.613,-3.61304l10.1165,-5.05825l13.7296,-4.33564l16.6199,-1.44521z"/>
     <path fill="#000000" stroke="#000000" stroke-width="1px" id="path3061" d="m1074.841189,761.679394l0.7227,1993.67315l13.0069,0l-2.8904,-1661.2739l7.226,-5.0582l9.3939,-3.613l7.9487,-1.4453l10.1165,-0.7226l-4.3356,-302.77237l-41.1887,-18.78778z"/>
     <path fill="#000000" stroke="#000000" stroke-width="1px" id="path3063" d="m1121.088089,1559.437644l7.9487,-2.8904l7.2261,-2.1678l10.8391,-1.4452l10.8391,0.7226l10.1165,1.4452l-5.7809,-457.4103l-6.5035,-3.6131l-13.0069,-6.5034l-10.8391,-2.8905l-11.5617,-1.4452l-14.4521,1.4452l-20.9557,9.3939l4.3357,1660.5513l31.0721,0l0.7226,-1195.1923z"/>
     <path fill="#000000" stroke="#000000" stroke-width="1px" id="path3084" d="m1030.762189,787.693254l0,100.44239l5.7809,-0.72261l7.9486,0l8.6713,2.89043l6.5035,2.16782l4.3356,6.50347l0.7226,9.39389l-1.4452,1846.2613l13.007,0l-1.4453,-1992.22794l-16.6199,8.67128l-19.5104,11.56172l-7.9487,5.05825z"/>
     <path fill="#000000" stroke="#000000" stroke-width="1px" id="path3086" d="m988.128379,909.813854l9.39391,-5.78085l12.2843,-6.50347l11.5617,-5.05825l11.5617,-5.05825l11.5617,0l9.3939,2.16782l7.9487,5.78086l2.1678,7.94868l-1.4452,1851.31955l-38.2982,0.7226l2.8905,-1341.1589l-5.0583,-3.613l-7.9487,-2.8905l-7.9486,-1.4452l-10.1165,0.7226l-13.72957,1.4452l5.78086,-498.59889z"/>
     <path fill="#000000" stroke="#000000" stroke-width="1px" id="path3088" d="m1170.103189,2756.633344l-8.1754,-754.1776l10.2192,-2.0438l11.2412,-1.0219l3.0657,3.0657l22.4823,0l-7.1535,-441.4698l-17.3726,-4.0877l-18.3946,-2.0438l-15.3288,-2.0438l-9.1973,0l-9.1973,1.0219l-6.1315,2.0438l-6.1315,4.0877l0,1195.6474l50.0741,1.0219z"/>
     <path fill="#000000" stroke="#000000" stroke-width="1px" id="path3090" d="m1208.936189,2754.589544l-4.0877,-366.8696l7.1534,-2.0439l9.1973,-1.0219l11.2412,1.0219l13.2849,0l-6.1315,-382.1983l-15.3288,-3.0658l-19.4165,-1.0219l-21.4603,2.0438l-11.2412,1.0219l-9.1973,0l7.1535,753.1557l38.833,-1.0219z"/>
     <path fill="#000000" stroke="#000000" stroke-width="1px" id="path3092" d="m946.302509,1417.917044l15.32881,-4.0877l10.21921,-4.0877l12.26305,-3.0657l14.30691,0l14.3069,0l7.1534,2.0438l8.1754,6.1316l-2.0439,1340.7601l-40.87679,-1.0219l5.10959,-888.0492l-9.19727,-3.0658l-10.21921,-2.0438l-18.39458,-1.022l-11.24112,2.0439l5.1096,-444.5356z"/>
     <path fill="#000000" stroke="#000000" stroke-width="1px" id="path3094" d="m909.513359,1867.562244l13.28497,-4.0877l10.21921,-2.0438l9.19729,-1.022l15.32881,1.022l15.32881,1.0219l8.17537,1.0219l9.19727,3.0658l-4.08767,887.0272l-43.94259,4.0877l1.02192,-482.3466l-19.4165,-2.0438l-10.21921,-1.022l-10.21921,1.022l6.13153,-405.7026z"/>
     <path fill="#000000" stroke="#000000" stroke-width="1px" id="path3096" d="m1209.447089,2755.611444l160.4416,-2.0439l-0.511,-31.6795l-41.8987,0.511l-0.511,-33.7234l-42.4097,0l-4.5986,-299.4228l-14.3069,-1.5329l-13.796,-1.5329l-17.3726,-2.0438l-13.7959,2.0438l-8.6864,0l-7.1534,3.0658l4.5986,366.3586z"/>
     <path fill="#000000" stroke="#000000" stroke-width="1px" id="path3098" d="m941.881519,2754.629944l-165.47704,-2.8905l0.72261,-28.1816l41.91122,0.7226l0.7226,-33.9626l44.07904,-1.4452l0,2.8904l3.61303,-416.2217l8.67129,-1.4452l14.45214,-2.1678l14.45215,-3.613l11.56171,0.7226l16.61997,1.4452l10.1165,1.4452l-1.44522,482.7016z"/>
     <path fill="#000000" stroke="#000000" stroke-width="1px" id="path3100" d="m1452.042189,2749.571644l-755.12449,1.4452l-1.44522,117.785l758.01491,-2.8904l-1.4452,-116.3398z"/>
     <path fill="#000000" stroke="#000000" stroke-width="1px" id="path3102" d="m1119.642889,1082.516944l7.2261,1.4452l9.3939,2.1679l-2.8905,-229.06651l-4.3356,-5.05825l-3.6131,-5.78085l-8.6712,-2.89043l2.8904,239.18294z"/>
     <path fill="#000000" stroke="#000000" stroke-width="1px" id="path3104" d="m1019.200489,893.193894l1.4452,-140.18579l4.3357,-5.78085l5.7808,-4.33565l0,145.24404l-11.5617,5.05825z"/>
     <path fill="#000000" stroke="#000000" stroke-width="1px" id="path3106" d="m993.909189,2754.629944l-0.7226,109.1136l158.251,0.7227l0,-109.1137l-157.5284,-0.7226z"/>
     <path fill="#000000" stroke="#000000" stroke-width="1px" id="path3108" d="m999.186889,2840.175344l28.6138,0.7665l0,24.2706l2.0438,-0.511l0.2555,-23.5041l82.5201,0.2554l0,22.4823l2.0439,0.2555l0,-22.7378l16.3507,-0.2554l11.4966,-0.7665l-0.7664,-2.8103l-27.0809,-0.2554l0,-1.7884l-86.6078,-0.511l-0.511,2.5548l-27.8473,-0.7664l-0.511,3.3212z"/>
     <path fill="#000000" stroke="#000000" stroke-width="1px" id="path3110" d="m1030.099989,2864.446044l83.0311,0.2554l-0.511,-23.7596l-83.031,-0.2555l0.5109,23.7597z"/>
    </g>
   </g>
  </g>
 </g>
</svg>