<?xml version="1.0" standalone="no"?>
<!DOCTYPE svg PUBLIC "-//W3C//DTD SVG 20010904//EN"
 "http://www.w3.org/TR/2001/REC-SVG-20010904/DTD/svg10.dtd">
<svg version="1.0" xmlns="http://www.w3.org/2000/svg"
 width="1280.000000pt" height="886.000000pt" viewBox="0 0 1280.000000 886.000000"
 preserveAspectRatio="xMidYMid meet">
<metadata>
Created by potrace 1.15, written by Peter Selinger 2001-2017
</metadata>
<g transform="translate(0.000000,886.000000) scale(0.100000,-0.100000)"
fill="#000000" stroke="none">
<path d="M9599 8830 c-12 -16 -26 -27 -30 -24 -4 2 -33 9 -63 15 -69 12 -82 6
-131 -65 l-37 -54 -38 19 c-32 17 -54 19 -146 17 l-108 -3 -18 -55 c-25 -81
-23 -111 12 -155 30 -38 38 -59 59 -175 7 -36 29 -112 48 -170 28 -84 34 -115
30 -155 -7 -72 -43 -141 -81 -156 -17 -7 -93 -50 -169 -96 -217 -130 -237
-138 -237 -93 0 10 -11 32 -25 49 -14 16 -32 52 -41 80 -12 43 -19 51 -50 61
-20 7 -63 10 -95 8 -47 -3 -63 -9 -75 -26 -8 -12 -26 -22 -38 -22 -30 0 -69
-31 -97 -76 -26 -42 -28 -77 -5 -99 23 -23 21 -31 -24 -78 -42 -43 -53 -70
-86 -210 -12 -54 -24 -82 -37 -89 -10 -5 -52 -12 -93 -15 -94 -7 -118 4 -139
66 -24 73 -79 145 -164 216 -44 37 -81 75 -84 86 -3 11 -21 26 -40 34 -45 19
-267 63 -357 71 -64 6 -70 5 -93 -18 -53 -53 -59 -146 -23 -324 34 -163 52
-218 84 -255 20 -24 28 -47 32 -88 5 -52 8 -57 56 -95 83 -66 84 -70 84 -262
0 -92 -3 -165 -6 -161 -3 3 -14 41 -24 84 -10 43 -37 123 -59 178 -23 55 -48
124 -56 153 -7 30 -24 69 -36 87 -24 34 -96 87 -137 100 -23 7 -23 7 10 23 42
21 48 63 19 121 -26 49 -55 68 -78 49 -12 -10 -14 -25 -10 -75 4 -35 11 -73
18 -84 9 -18 9 -21 -2 -17 -8 3 -31 11 -51 19 l-38 13 0 127 c0 115 -2 129
-23 160 -12 19 -32 38 -44 43 -14 7 -23 22 -27 47 -5 28 -19 49 -62 88 -31 28
-66 54 -79 57 -16 4 -28 18 -35 40 -14 41 -46 65 -89 66 -40 1 -61 -18 -61
-56 -1 -28 -2 -29 -12 -11 -16 29 -28 35 -74 35 -30 0 -52 -8 -82 -30 -48 -34
-67 -68 -83 -141 -8 -34 -22 -64 -44 -88 l-34 -36 -114 0 c-101 0 -119 -3
-144 -21 -47 -34 -73 -98 -73 -181 l0 -73 -35 -14 c-19 -8 -40 -26 -47 -41
-10 -22 -6 -36 40 -123 62 -120 102 -235 95 -279 -3 -18 0 -46 6 -63 9 -28 6
-37 -25 -85 -19 -30 -36 -55 -38 -55 -2 0 -19 16 -39 35 -20 19 -45 35 -56 35
-21 0 -61 -35 -61 -54 -2 -32 -31 53 -40 113 -19 137 -70 232 -147 276 -26 15
-56 35 -66 43 -9 9 -76 133 -147 277 -72 143 -144 278 -161 298 -37 46 -76 49
-145 12 -26 -14 -59 -25 -74 -25 -37 0 -132 -29 -149 -45 -9 -9 -17 -52 -23
-118 -9 -97 -7 -114 22 -258 37 -184 85 -380 111 -457 11 -33 19 -82 19 -121
-1 -117 -56 -319 -97 -353 -18 -14 -161 -47 -210 -48 -44 0 -64 23 -58 68 2
20 7 63 10 95 l5 58 -42 18 c-88 38 -79 42 -186 -69 -153 -161 -173 -192 -217
-338 -43 -147 -46 -205 -18 -312 11 -41 23 -88 27 -105 6 -30 6 -30 -12 5 -11
19 -25 58 -32 85 -14 56 -53 115 -75 115 -8 0 -22 -12 -32 -26 -14 -23 -18
-63 -24 -243 -4 -119 -12 -229 -17 -246 l-9 -30 -12 29 c-8 19 -10 66 -6 140
4 61 2 131 -3 156 -25 117 -55 208 -81 240 -15 19 -33 45 -40 58 -6 12 -18 22
-27 22 -13 0 -13 4 0 28 20 40 36 125 36 195 0 68 -4 78 -38 96 -19 10 -30 9
-63 -7 -21 -11 -39 -18 -39 -17 0 1 7 16 16 33 30 61 -4 94 -109 106 -119 13
-197 82 -171 150 9 22 21 20 29 -5 9 -27 55 -46 133 -55 76 -8 94 2 157 88 49
66 55 96 25 123 -26 24 -25 37 4 64 35 33 90 158 92 211 1 25 11 64 24 88 15
29 20 50 15 69 -10 40 -41 79 -74 93 -17 7 -39 27 -50 46 l-20 34 32 0 c35 0
77 24 77 44 0 17 -46 58 -108 96 -48 29 -59 32 -104 27 l-51 -6 22 23 c19 20
20 27 11 52 -19 48 -58 92 -89 99 -34 7 -91 -18 -91 -40 0 -10 -10 -15 -30
-15 l-30 0 0 79 c0 44 5 102 12 130 11 50 11 52 -17 81 -15 16 -60 45 -100 65
-75 37 -95 61 -95 114 0 16 -7 34 -15 41 -8 7 -15 19 -15 26 0 26 -47 46 -97
42 -47 -3 -48 -2 -45 23 3 35 -18 52 -51 40 -14 -5 -28 -15 -32 -20 -8 -15
-27 -14 -48 2 -16 11 -16 16 -1 75 20 79 13 116 -21 109 -21 -3 -24 -1 -20 17
6 26 -2 38 -37 53 -36 16 -83 82 -110 156 -21 58 -74 127 -97 127 -7 0 -23
-12 -38 -26 l-25 -25 -27 24 c-36 34 -66 48 -86 41 -9 -4 -27 -28 -41 -55 -18
-37 -30 -49 -47 -49 -25 0 -85 37 -137 85 -49 46 -76 57 -113 49 -62 -13 -87
-32 -87 -65 l0 -31 -57 6 c-32 4 -67 7 -78 7 -21 0 -75 -56 -75 -78 0 -20 82
-110 113 -123 22 -10 25 -15 16 -26 -14 -17 -50 -18 -101 -4 -28 8 -44 8 -60
-1 -52 -27 -50 -57 8 -119 88 -94 188 -122 292 -81 39 16 64 18 134 14 80 -5
87 -7 92 -29 4 -15 26 -35 59 -53 91 -51 116 -73 104 -92 -10 -16 -15 -15 -61
11 -121 67 -244 77 -345 26 -130 -66 -133 -127 -14 -242 63 -61 140 -113 263
-175 78 -40 108 -61 129 -90 14 -21 36 -42 48 -45 21 -6 22 -8 8 -40 -17 -41
-14 -50 41 -131 41 -59 65 -132 63 -191 l0 -27 -10 24 c-5 13 -25 41 -43 61
-19 21 -37 48 -41 60 -6 18 -12 21 -36 16 -33 -6 -38 0 -120 148 -33 58 -49
78 -69 82 -14 2 -40 9 -58 15 -47 15 -54 4 -60 -85 -5 -76 -22 -97 -22 -27 0
46 -13 58 -82 81 l-52 17 -11 58 c-16 79 -46 99 -109 75 -24 -9 -26 -7 -26 18
0 36 -41 122 -71 148 -59 53 -208 146 -255 160 -48 14 -55 13 -105 -6 -71 -28
-157 -115 -140 -142 16 -25 15 -26 -21 -30 -37 -4 -70 -43 -71 -85 0 -22 18
-44 89 -111 72 -67 83 -80 59 -73 -16 5 -54 24 -82 44 -52 35 -149 77 -179 77
-21 0 -52 -56 -65 -118 -10 -51 -9 -57 21 -118 35 -72 150 -200 242 -269 87
-65 46 -55 -60 14 -155 102 -182 109 -242 69 -76 -53 -86 -123 -30 -233 69
-136 157 -218 270 -252 59 -18 312 -25 380 -11 27 6 31 5 17 -3 -10 -6 -82
-22 -160 -35 -212 -36 -224 -44 -168 -121 32 -44 72 -76 110 -88 19 -6 21 -9
10 -20 -8 -6 -34 -20 -59 -30 -25 -9 -51 -20 -59 -23 -10 -4 -12 2 -6 26 9 44
-22 107 -81 163 -51 48 -428 298 -498 330 l-41 19 -24 -27 c-22 -25 -23 -33
-19 -132 5 -122 20 -162 95 -242 l45 -48 -59 2 -58 2 -3 -32 c-4 -37 26 -100
76 -161 19 -23 33 -44 31 -46 -2 -3 -47 34 -99 81 -52 47 -117 96 -144 110
-28 14 -67 37 -87 50 -21 14 -43 22 -50 18 -15 -10 -67 -123 -89 -195 -15 -46
-24 -58 -56 -75 -22 -11 -65 -45 -97 -76 -67 -65 -72 -94 -22 -119 24 -12 68
-15 222 -13 l193 2 72 -52 c58 -42 78 -64 102 -111 42 -80 70 -99 154 -104 96
-6 175 11 220 47 38 31 189 104 279 136 l51 18 60 -26 c65 -29 88 -32 143 -17
59 17 81 49 87 129 l5 70 25 -17 c36 -24 93 -44 120 -44 13 0 43 14 67 31 23
17 45 28 48 24 4 -3 22 6 42 21 l35 27 -27 -57 -28 -57 29 -21 c17 -11 46 -37
66 -57 42 -42 92 -58 117 -38 13 12 15 29 10 109 -5 88 -4 92 7 50 35 -127 64
-120 86 20 16 109 24 120 30 45 4 -46 9 -61 22 -63 19 -4 42 42 54 103 12 67
24 34 24 -67 1 -114 11 -173 34 -196 25 -25 67 -4 94 46 27 49 40 52 70 17
l22 -25 -27 -10 c-98 -34 -104 -60 -33 -147 62 -77 121 -113 184 -115 56 -1
69 9 85 64 7 24 22 60 33 82 l19 38 17 -33 c21 -42 54 -49 76 -17 14 20 18 21
26 8 6 -8 13 -26 16 -40 10 -45 21 -55 75 -66 41 -8 49 -13 34 -18 -53 -20
-71 -29 -105 -56 -44 -34 -362 -222 -441 -259 -41 -20 -88 -60 -180 -152 -68
-70 -143 -136 -166 -148 -44 -22 -73 -63 -73 -102 0 -18 5 -20 27 -17 16 3 36
9 46 13 24 10 23 -20 -3 -76 -16 -37 -17 -46 -6 -58 19 -18 67 -2 132 44 60
43 86 44 160 4 119 -62 231 -93 344 -93 66 0 82 4 135 32 33 18 95 61 137 97
42 36 82 65 88 65 17 0 5 -49 -40 -161 -21 -53 -43 -120 -49 -150 -6 -30 -16
-61 -21 -69 -14 -23 -142 -18 -210 9 -30 13 -91 26 -135 30 -56 6 -104 18
-158 42 l-79 34 -130 -27 c-71 -15 -154 -39 -185 -53 -30 -13 -59 -22 -64 -19
-5 3 -9 23 -9 45 0 40 -27 106 -52 127 -19 15 -49 -6 -89 -61 -19 -26 -50 -51
-82 -67 -46 -22 -52 -28 -50 -54 l2 -28 -54 7 c-43 5 -61 2 -94 -14 -51 -26
-55 -26 -84 3 -14 14 -44 30 -67 36 -81 22 -120 -17 -120 -119 0 -79 -20 -120
-34 -68 -3 12 -20 39 -37 60 -27 33 -36 38 -58 32 -14 -3 -55 -12 -91 -20 -58
-12 -69 -19 -103 -59 -22 -25 -47 -46 -57 -46 -9 0 -30 -10 -46 -22 -54 -43
-193 -19 -224 37 -9 17 -23 31 -31 33 -8 1 -57 -18 -109 -43 -52 -26 -116 -51
-144 -56 -82 -15 -82 -25 5 -209 32 -69 59 -135 59 -147 0 -47 19 -71 87 -108
66 -37 71 -38 161 -36 51 1 103 6 116 11 14 5 36 34 57 73 l33 65 106 4 c101
3 107 4 152 37 l47 34 94 -36 c86 -33 188 -56 312 -72 104 -13 319 -57 346
-71 40 -20 61 -18 146 16 41 17 78 30 81 30 14 0 11 -59 -3 -70 -8 -7 -15 -20
-15 -30 0 -18 55 -73 81 -82 18 -6 -2 -71 -36 -122 -14 -20 -25 -42 -25 -48 0
-6 14 -36 31 -66 18 -32 38 -92 50 -146 27 -128 32 -136 73 -136 43 0 51 -11
36 -56 -11 -32 -9 -41 23 -109 50 -105 74 -112 199 -65 52 19 59 25 68 59 9
36 64 100 76 89 3 -3 -4 -24 -15 -47 -25 -49 -54 -126 -76 -204 -16 -54 -16
-61 1 -106 l17 -49 -71 -82 c-40 -46 -72 -86 -72 -90 0 -18 32 -28 120 -39
109 -13 143 -7 224 37 l56 30 -42 -50 c-67 -78 -80 -97 -93 -136 -16 -44 -6
-75 26 -82 13 -3 29 -17 36 -30 7 -14 22 -33 33 -42 20 -16 20 -19 5 -47 -8
-17 -24 -35 -34 -41 -29 -15 -118 -12 -152 6 -45 23 -83 15 -87 -18 -3 -22 4
-32 40 -55 42 -28 43 -28 16 -31 -53 -6 -76 -81 -42 -131 14 -19 14 -25 3 -32
-8 -5 -22 -9 -32 -9 -20 0 -88 -33 -130 -63 -27 -18 -33 -19 -83 -7 -52 13
-55 12 -119 -19 -37 -18 -81 -48 -100 -67 -36 -35 -70 -43 -106 -23 -11 5 -41
53 -66 105 -66 134 -128 203 -172 189 -23 -7 -35 -34 -56 -130 -10 -44 -26
-97 -37 -119 -23 -44 -19 -73 18 -129 l25 -39 -35 -75 c-40 -83 -42 -99 -20
-128 12 -16 14 -36 8 -95 -9 -109 -5 -112 156 -101 119 8 164 18 273 61 46 18
49 18 115 -1 153 -44 408 -41 555 7 l85 28 37 -30 c20 -16 48 -38 61 -48 31
-26 121 -25 259 2 127 26 153 36 165 66 7 19 17 25 47 28 76 6 126 -9 209 -64
44 -29 131 -80 193 -113 183 -98 356 -236 651 -520 143 -138 246 -214 339
-251 45 -17 86 -23 206 -28 176 -8 265 -19 332 -42 58 -20 348 -148 534 -237
186 -88 195 -91 266 -76 109 22 127 22 212 -5 147 -46 194 -38 645 114 513
172 535 188 676 500 39 85 78 170 88 189 41 80 165 155 348 209 133 40 253 59
479 77 273 22 473 53 503 77 7 7 34 47 59 90 24 42 92 137 150 210 57 73 116
154 129 180 13 26 48 67 81 95 32 26 134 125 228 219 178 180 235 225 313 251
26 9 83 41 127 73 44 31 91 63 103 69 58 31 147 53 291 72 172 23 194 30 189
62 -4 27 47 87 74 87 10 0 27 9 38 20 l20 20 25 -26 c14 -15 23 -30 20 -34 -3
-4 -32 -10 -66 -12 -64 -5 -93 -24 -87 -58 3 -12 21 -15 98 -15 141 0 188 10
203 43 6 15 26 44 44 64 29 34 32 41 26 86 -12 105 53 164 328 292 65 30 86
56 104 130 8 36 21 88 29 115 8 28 17 67 21 88 4 25 22 55 52 89 103 116 131
199 79 233 -30 20 -48 12 -81 -35 -14 -21 -59 -70 -99 -108 -77 -75 -104 -83
-127 -40 -16 30 -5 44 54 71 60 27 133 88 142 118 4 11 1 26 -5 34 -11 13 1
15 84 15 77 0 98 3 102 15 11 28 -5 61 -42 86 -20 13 -53 47 -73 74 l-36 50
41 -32 c95 -75 167 -79 289 -19 78 38 108 73 120 138 5 26 1 41 -19 67 -31 41
-35 75 -8 68 71 -20 88 -18 149 22 69 45 79 56 64 75 -9 10 -3 22 24 49 25 25
35 44 35 67 0 39 -24 82 -58 102 -24 15 -24 15 31 22 58 8 122 42 122 66 0 7
-23 25 -51 40 -59 30 -138 87 -207 147 -52 46 -61 50 -157 62 -63 7 -64 8 -35
20 17 6 35 19 42 28 11 15 16 15 55 0 24 -9 79 -46 123 -82 94 -77 128 -91
182 -75 60 17 113 72 113 118 0 13 16 39 36 60 67 69 71 88 45 202 -5 25 -10
68 -11 96 0 106 -46 111 -105 11 -22 -37 -43 -67 -46 -67 -17 0 -18 35 -2 52
12 14 18 36 18 70 0 40 -5 53 -24 69 -13 10 -35 19 -50 19 l-26 0 33 26 c43
34 75 98 76 152 1 36 -4 48 -27 68 -42 36 -101 48 -165 34 -30 -6 -56 -9 -59
-6 -4 3 -1 6 5 6 19 0 72 51 72 69 0 10 -9 26 -20 36 -21 19 -21 19 22 39 56
27 76 65 89 167 5 46 14 107 19 134 6 36 5 56 -4 70 -7 11 -17 38 -24 60 -13
47 -96 145 -121 145 -10 0 -28 -11 -41 -25 -28 -30 -40 -32 -40 -7 0 10 -11
29 -25 42 -14 13 -25 31 -25 40 0 30 -39 69 -81 81 -31 10 -57 10 -117 0 -67
-11 -83 -10 -122 4 -58 21 -259 155 -298 199 l-30 35 19 77 c23 87 22 132 -3
147 -13 9 -42 -1 -135 -46 -103 -49 -296 -120 -386 -141 l-27 -7 16 38 c11 24
16 61 15 100 -2 59 0 65 37 105 60 68 91 113 125 186 44 92 44 172 0 295 -17
48 -42 106 -55 129 -38 70 -101 76 -155 16 -15 -17 -40 -44 -54 -59 l-27 -28
-37 19 c-21 11 -71 27 -111 36 l-74 16 0 64 c0 75 -7 81 -68 60 -40 -14 -42
-14 -42 4 0 14 19 28 64 50 149 71 221 237 152 354 -15 26 -26 49 -24 52 2 2
32 22 66 44 40 25 68 52 79 74 11 24 29 40 57 51 172 72 253 126 239 161 -7
19 -33 18 -142 -11 -52 -14 -103 -25 -112 -25 -9 0 -36 16 -59 35 l-41 35 -38
-19 c-80 -41 -194 -166 -263 -289 -37 -65 -67 -81 -156 -85 -39 -1 -77 -8 -86
-16 -29 -24 -35 -74 -19 -156 8 -43 12 -79 9 -82 -12 -13 -58 11 -120 62 -52
42 -84 60 -139 76 -40 11 -78 22 -84 25 -7 2 -13 17 -13 33 0 17 -9 38 -20 49
l-20 19 30 71 c49 117 37 193 -40 250 -40 30 -150 82 -173 82 -34 0 -49 92
-25 146 11 24 10 28 -6 38 -61 36 -138 100 -146 121 -13 33 -35 32 -61 -5z
m-6580 -5546 c-24 -26 -78 -59 -85 -52 -5 5 88 77 100 77 5 1 -1 -11 -15 -25z
m246 -454 c3 -5 2 -10 -4 -10 -5 0 -33 -20 -62 -45 -73 -63 -114 -61 -46 2 61
57 98 75 112 53z m125 -41 c0 -5 -12 -3 -27 3 -44 19 -50 28 -10 16 21 -6 37
-15 37 -19z m7451 -172 c15 -14 29 -37 31 -50 l5 -25 -104 -1 -104 -1 3 27 c2
19 10 29 23 31 30 5 45 30 35 57 l-9 23 47 -18 c26 -10 59 -29 73 -43z"/>
</g>
</svg>
