<?xml version="1.0" standalone="no"?>
<!DOCTYPE svg PUBLIC "-//W3C//DTD SVG 20010904//EN"
 "http://www.w3.org/TR/2001/REC-SVG-20010904/DTD/svg10.dtd">
<svg version="1.0" xmlns="http://www.w3.org/2000/svg"
 width="1280.000000pt" height="491.000000pt" viewBox="0 0 1280.000000 491.000000"
 preserveAspectRatio="xMidYMid meet">
<g transform="translate(0.000000,491.000000) scale(0.100000,-0.100000)"
fill="#000000" stroke="none">
<path d="M8022 4663 c-8 -14 -18 -20 -28 -16 -12 4 -14 0 -9 -18 6 -26 -19
-99 -35 -99 -5 0 -7 -13 -3 -30 4 -24 -13 -73 -82 -233 -48 -111 -92 -206 -97
-212 -6 -7 -16 -1 -28 15 -22 29 -20 30 -54 -37 -14 -29 -35 -57 -46 -63 -15
-8 -20 -21 -20 -53 -1 -23 -9 -57 -19 -76 l-18 -34 -17 25 c-25 38 -115 356
-117 415 -2 32 3 58 11 68 12 15 12 18 -3 26 -10 6 -18 23 -18 42 l-2 32 -4
-30 c-3 -16 -11 -37 -19 -46 -13 -14 -13 -18 0 -28 10 -8 13 -28 11 -65 -4
-65 -91 -402 -112 -435 -12 -18 -13 -28 -4 -45 10 -18 11 -205 2 -376 0 -8 1
-41 3 -72 3 -32 1 -60 -3 -62 -4 -3 -48 -10 -97 -16 -49 -5 -111 -15 -138 -21
-117 -27 -602 -96 -618 -88 -18 10 -121 -6 -153 -23 -23 -13 -704 -117 -722
-110 -8 2 -13 23 -13 53 0 37 -4 49 -15 49 -10 0 -15 -10 -15 -29 0 -31 -14
-41 -61 -41 -22 0 -29 5 -29 19 0 40 -53 28 -61 -14 -3 -13 -14 -21 -30 -23
-21 -2 -28 2 -33 22 -11 45 -36 32 -36 -18 0 -25 -6 -51 -14 -58 -12 -12 -542
-99 -603 -98 -27 0 -31 11 -22 74 3 28 3 58 -1 66 -13 25 -80 295 -81 326 -2
27 -2 27 -6 4 -9 -49 -75 -285 -81 -292 -15 -15 -50 5 -65 38 -15 31 -19 33
-38 22 -18 -11 -23 -10 -40 11 -10 13 -19 35 -19 49 0 13 -6 30 -14 36 -22 18
-179 378 -179 411 0 17 -6 39 -13 50 -8 11 -14 31 -14 46 0 15 -7 29 -16 33
-8 3 -24 27 -36 52 l-20 46 -25 -41 c-13 -23 -28 -39 -33 -36 -5 3 -11 -8 -15
-24 -3 -16 -12 -35 -20 -41 -7 -6 -11 -20 -8 -30 7 -26 -14 -50 -40 -47 -20 2
-22 -2 -20 -48 3 -44 -4 -64 -60 -170 -58 -112 -64 -120 -94 -123 -22 -2 -38
3 -52 17 -12 12 -23 21 -26 21 -2 0 -13 -20 -24 -45 -11 -25 -25 -45 -30 -45
-6 0 -11 -9 -11 -21 0 -86 -74 127 -85 245 -3 29 0 55 7 63 8 10 8 17 0 25
-19 19 -29 -1 -24 -50 3 -37 -5 -84 -32 -183 -20 -74 -44 -150 -53 -171 -8
-20 -12 -42 -7 -49 4 -7 9 -67 11 -133 4 -95 1 -125 -10 -140 -11 -15 -12 -27
-5 -47 5 -16 8 -110 6 -212 l-3 -184 -119 -159 c-478 -638 -944 -1087 -1370
-1319 l-85 -46 -122 61 c-67 34 -145 76 -174 94 l-52 34 -2 118 c-1 65 -3 119
-4 121 -2 1 -29 5 -60 7 -32 2 -64 10 -73 17 -21 17 -94 150 -94 171 0 11 -6
15 -19 11 -17 -4 -468 31 -538 43 -27 4 -33 2 -33 -13 0 -20 -95 -173 -108
-173 -4 0 -13 5 -18 10 -8 8 -15 6 -24 -5 -7 -9 -28 -15 -51 -15 -22 0 -39 -4
-39 -10 0 -14 -28 -12 -33 3 -10 29 -16 -6 -17 -108 -1 -61 -4 -138 -7 -172
l-5 -61 -95 -104 c-53 -56 -127 -135 -164 -174 l-69 -71 0 -233 0 -233 523 7
c287 3 615 9 729 13 l206 6 0 106 c0 142 4 181 22 190 8 5 206 13 440 20 234
6 488 16 565 22 77 5 208 9 290 7 l150 -3 3 -57 c3 -54 1 -60 -36 -100 -75
-84 -82 -99 -82 -184 l0 -77 1008 7 c554 3 1058 9 1120 13 l112 6 0 66 c-1 58
-4 71 -30 105 -24 32 -30 49 -30 91 0 28 6 58 13 67 17 23 428 108 712 149
167 24 230 22 456 -11 271 -41 716 -127 737 -143 8 -6 12 -37 12 -88 0 -61 -4
-86 -20 -111 -16 -27 -20 -51 -20 -125 l0 -93 1033 0 c567 0 1070 3 1116 7
l84 6 -7 106 c-17 285 -19 430 -6 446 12 15 40 16 244 10 127 -3 598 -12 1046
-20 1656 -30 1910 -35 2158 -41 l252 -6 0 242 0 242 -52 -6 c-150 -17 -289
-18 -390 -1 -144 24 -590 119 -727 156 -162 43 -473 153 -722 254 -530 215
-1152 558 -1600 883 -192 139 -444 346 -526 431 l-53 55 0 211 c0 146 4 215
12 223 8 8 8 15 1 24 -17 20 -25 214 -13 302 6 47 6 83 1 90 -5 6 -32 91 -60
188 -51 176 -63 262 -40 285 9 9 7 16 -5 29 -16 15 -18 15 -31 -2 -8 -12 -10
-23 -4 -28 20 -21 7 -111 -42 -282 -50 -178 -71 -230 -89 -219 -6 4 -10 65
-10 139 0 130 -1 134 -24 149 -16 11 -28 33 -36 67 -14 60 -26 70 -41 36 -12
-25 -56 -44 -70 -29 -4 4 -40 91 -79 193 -51 132 -72 198 -72 230 1 25 -7 56
-15 69 -9 14 -17 45 -19 70 -2 24 -9 48 -15 52 -6 3 -19 24 -28 45 -17 38 -18
38 -29 17z m22 -79 c17 -7 22 -34 6 -34 -5 0 -10 5 -10 10 0 6 -7 10 -15 10
-8 0 -15 5 -15 10 0 11 11 13 34 4z m-446 -840 c-4 -41 -38 -46 -38 -7 0 32
19 58 33 44 5 -5 7 -21 5 -37z m-3578 -9 c0 -8 -4 -15 -9 -15 -13 0 -22 16
-14 24 11 11 23 6 23 -9z m40 -15 c0 -5 -7 -10 -15 -10 -8 0 -15 5 -15 10 0 6
7 10 15 10 8 0 15 -4 15 -10z m3517 -82 c-3 -7 -5 -2 -5 12 0 14 2 19 5 13 2
-7 2 -19 0 -25z m908 -101 c0 -65 -19 -64 -23 2 -2 40 0 52 10 49 8 -3 13 -22
13 -51z m-1165 -851 c0 -2 9 -46 19 -97 18 -88 19 -141 18 -814 l-2 -719 -165
-2 c-91 -1 -180 -4 -197 -8 -26 -6 -33 -4 -33 7 0 10 -10 14 -32 13 -37 -2
-41 -18 -6 -27 16 -4 23 -12 22 -29 -1 -21 0 -21 12 -6 17 24 21 12 23 -66 2
-43 -2 -68 -8 -68 -6 0 -11 11 -11 24 0 51 -16 32 -28 -32 -7 -36 -15 -69 -18
-71 -3 -3 -395 -10 -872 -14 -477 -5 -912 -10 -967 -11 l-100 -1 1 35 c0 19 4
44 9 55 8 19 7 19 -11 4 -15 -13 -46 -17 -154 -18 -74 -1 -138 -5 -142 -9 -4
-4 -8 -23 -10 -42 -3 -30 -7 -35 -32 -38 l-28 -4 7 649 c4 390 11 664 17 688
6 22 10 95 9 163 -1 90 2 124 11 127 22 8 2560 313 2616 314 28 1 52 -1 52 -3z
m1564 -151 c112 -125 147 -174 116 -163 -22 7 -260 184 -265 197 -8 19 6 112
16 109 4 -2 64 -66 133 -143z m111 -7 c77 -64 138 -123 141 -135 4 -14 14 -23
25 -23 10 0 23 -9 29 -20 6 -11 21 -20 33 -20 26 0 162 -92 180 -122 7 -11 29
-28 49 -39 20 -10 39 -28 43 -39 3 -11 14 -20 24 -20 10 0 24 -6 30 -14 7 -8
19 -12 29 -10 20 5 238 -128 235 -144 -1 -5 11 -15 27 -21 17 -5 33 -17 36
-26 3 -8 14 -15 24 -15 10 0 23 -7 30 -15 8 -10 17 -12 24 -6 8 7 52 -12 139
-60 119 -66 155 -99 107 -99 -23 0 -223 98 -228 111 -2 5 -14 9 -26 9 -13 0
-35 9 -49 20 -14 11 -31 20 -37 20 -14 0 -78 37 -98 57 -7 7 -19 13 -26 13
-21 0 -107 51 -113 66 -3 8 -15 14 -28 14 -12 0 -42 13 -66 30 -24 16 -48 30
-52 30 -5 0 -40 20 -77 45 -47 30 -72 53 -76 70 -3 14 -19 34 -35 46 -32 22
-38 16 -12 -13 13 -15 14 -18 1 -18 -8 0 -24 11 -36 25 -12 14 -27 25 -34 25
-16 0 -58 41 -58 57 0 7 -8 13 -19 13 -11 0 -63 49 -129 123 -227 252 -228
269 -7 85z m-158 -79 c51 -37 82 -66 79 -74 -3 -8 10 -19 33 -29 21 -8 48 -27
60 -42 12 -16 29 -29 37 -30 8 -1 22 -8 31 -16 9 -7 25 -12 35 -10 15 3 19 -2
18 -20 -4 -46 -1 -55 14 -35 7 9 19 17 27 17 16 -1 129 -104 129 -119 0 -5 8
-12 19 -16 10 -3 42 -30 70 -60 29 -30 60 -59 71 -65 10 -5 24 -26 31 -45 11
-29 16 -34 37 -28 17 4 31 -2 53 -23 16 -15 29 -35 29 -43 0 -21 32 -41 56
-35 28 6 178 -115 182 -147 4 -32 38 -55 57 -39 15 13 61 -6 84 -34 8 -9 19
-16 25 -16 17 0 126 -75 142 -99 8 -11 25 -21 38 -21 29 0 76 -43 76 -70 0
-23 -10 -26 -28 -8 -9 9 -15 9 -23 1 -17 -17 -304 128 -312 156 -3 12 -13 21
-25 21 -11 0 -22 9 -25 20 -3 12 -11 18 -19 15 -8 -3 -22 3 -33 14 -11 13 -25
19 -39 15 -15 -3 -56 18 -144 75 -67 44 -125 87 -128 95 -3 8 -14 16 -25 19
-10 3 -23 17 -29 31 -6 16 -15 24 -23 20 -8 -3 -25 10 -42 32 -20 27 -30 33
-36 23 -9 -16 -23 -6 -162 104 -48 39 -86 76 -83 83 3 7 -6 15 -20 18 -14 4
-29 18 -34 31 -5 14 -16 25 -24 25 -8 0 -35 24 -61 54 -29 34 -52 53 -61 49
-20 -7 -170 141 -177 175 -6 29 12 92 26 92 5 0 47 -28 94 -61z m23 -235 c90
-84 140 -139 149 -163 19 -47 18 -46 35 -32 17 14 28 9 83 -37 21 -18 91 -73
156 -123 65 -50 122 -101 127 -113 5 -11 11 -30 15 -41 6 -19 7 -19 16 -2 6 9
14 17 19 17 21 0 363 -226 370 -245 5 -11 11 -29 15 -40 6 -19 7 -19 16 -2 6
9 17 17 25 17 8 0 95 -40 193 -90 168 -83 180 -91 191 -125 13 -41 16 -42 38
-15 17 21 18 21 192 -46 192 -73 225 -91 234 -129 8 -30 22 -33 31 -6 3 11 12
22 20 24 22 9 307 -69 321 -87 7 -10 18 -14 28 -10 30 11 64 -5 74 -36 13 -37
25 -38 40 -5 7 16 20 25 34 25 37 0 130 -17 192 -35 48 -14 59 -22 68 -46 12
-34 19 -36 36 -9 9 15 23 20 55 20 48 0 59 -6 76 -38 l12 -23 18 23 19 22 138
-17 c77 -10 176 -17 221 -17 91 0 113 -5 113 -28 0 -13 -53 -14 -492 -8 -271
3 -702 8 -958 10 -256 2 -822 6 -1259 9 -437 4 -798 10 -803 15 -5 5 -11 347
-14 760 -4 614 -3 752 8 752 7 0 74 -57 148 -126z m-5471 -61 c8 -50 11 -189
9 -390 l-3 -312 -35 -36 c-82 -86 -378 -335 -397 -335 -6 0 -17 -8 -24 -17
-24 -29 -236 -162 -356 -223 -165 -84 -276 -123 -333 -117 -61 7 -115 -4 -115
-23 0 -12 -11 -14 -50 -12 -80 4 -92 37 -12 34 l42 -1 -32 15 c-18 8 -33 18
-33 24 0 14 95 60 125 60 14 0 25 6 25 14 0 20 145 117 164 110 10 -4 16 -1
16 9 0 18 135 146 168 158 12 5 22 13 22 19 0 17 152 180 167 180 8 0 18 11
23 25 13 34 162 224 176 225 7 0 15 12 18 26 4 15 36 67 72 116 35 50 72 103
81 119 10 16 21 29 26 29 4 0 13 12 20 28 29 67 201 352 212 352 8 0 17 -29
24 -77z m-168 -91 c-11 -21 -32 -53 -46 -70 -14 -16 -25 -37 -25 -46 0 -21
-47 -69 -59 -62 -5 3 -17 -7 -27 -22 -15 -24 -15 -25 -1 -13 15 11 17 11 17
-2 0 -8 -7 -20 -15 -27 -8 -7 -29 -37 -46 -68 -18 -30 -40 -62 -51 -71 -10 -8
-18 -23 -18 -33 0 -23 -44 -51 -68 -44 -12 4 -25 0 -33 -10 -13 -16 -11 -17
13 -11 15 4 29 3 32 -1 7 -12 -36 -71 -57 -78 -9 -3 -24 -18 -32 -34 -27 -53
-116 -164 -183 -231 -37 -37 -94 -94 -127 -128 -32 -33 -64 -61 -70 -61 -6 0
-31 -21 -55 -46 -51 -52 -122 -104 -143 -104 -7 0 -29 -14 -48 -31 -49 -44
-107 -72 -135 -65 -17 5 -26 2 -30 -9 -8 -21 -33 -19 -72 5 -18 11 -38 18 -43
14 -18 -11 -38 4 -32 24 4 16 69 56 93 57 13 1 58 31 92 61 40 36 92 66 100
58 3 -3 27 17 54 44 60 60 116 102 136 102 8 0 39 28 68 61 30 34 73 74 96 88
23 15 64 54 92 88 61 73 101 103 136 103 22 0 26 5 26 27 0 15 9 36 20 48 11
11 36 41 56 68 19 26 40 47 47 47 16 0 64 54 72 80 4 11 21 31 40 45 18 14 36
37 39 50 3 13 22 36 41 50 19 15 51 52 71 83 39 61 85 114 91 108 3 -2 -5 -22
-16 -44z m6350 -82 c22 -12 42 -27 46 -35 3 -8 13 -15 23 -15 10 0 32 -11 48
-25 17 -14 38 -25 48 -25 25 -1 58 -26 50 -38 -3 -5 8 -12 24 -16 18 -3 30
-12 30 -21 0 -9 9 -15 21 -15 12 0 23 -8 26 -20 6 -24 19 -26 31 -3 9 15 13
15 56 -1 26 -10 52 -27 59 -37 7 -11 23 -19 40 -19 15 0 30 -7 33 -15 4 -8 15
-15 25 -15 33 0 89 -33 89 -52 0 -13 8 -18 26 -18 18 0 28 -6 31 -20 4 -15 9
-18 18 -10 8 6 18 5 31 -4 13 -10 23 -11 32 -4 9 8 17 7 30 -4 9 -8 27 -15 39
-16 26 -1 122 -40 144 -59 8 -7 23 -13 33 -13 9 0 31 -7 47 -16 23 -11 30 -21
26 -35 -5 -18 -2 -19 24 -14 21 5 31 2 35 -8 3 -9 13 -13 25 -10 16 4 34 -9
75 -52 30 -31 54 -65 54 -76 0 -10 6 -19 13 -19 16 0 51 -37 60 -62 8 -23 57
-25 57 -3 0 9 -8 19 -17 22 -20 7 -183 164 -183 175 0 5 8 8 17 8 30 0 177
-51 189 -66 6 -7 20 -11 31 -8 13 4 28 -1 40 -13 10 -10 27 -18 38 -18 14 0
19 -6 17 -19 -2 -11 1 -15 7 -11 19 11 49 -5 60 -33 10 -27 10 -27 16 -4 9 27
17 27 52 5 19 -13 28 -14 31 -5 2 6 11 12 19 12 29 0 153 -41 153 -50 0 -6 11
-10 25 -10 14 0 28 -7 31 -15 4 -10 14 -13 29 -9 16 4 27 -1 38 -16 12 -17 23
-21 54 -18 28 2 38 -1 39 -12 0 -8 4 -26 9 -40 l9 -25 6 30 c3 21 12 31 26 33
23 3 144 -42 153 -57 4 -5 22 -10 41 -12 35 -4 63 -27 58 -50 -4 -18 72 -12
93 7 10 9 26 12 46 8 18 -4 33 -1 37 5 13 21 43 -6 44 -39 1 -37 -14 -45 -53
-30 -23 9 -30 8 -37 -4 -6 -11 -30 -15 -106 -14 -94 1 -138 10 -127 27 2 5 -8
11 -23 14 -15 3 -29 1 -33 -4 -3 -5 -26 -12 -52 -15 -44 -6 -47 -5 -57 21 -10
26 -12 27 -29 11 -20 -18 -47 -21 -56 -6 -10 16 -25 12 -19 -5 5 -11 -1 -15
-23 -15 -16 0 -33 3 -37 7 -8 8 -46 13 -96 13 -14 0 -54 3 -89 6 -50 5 -64 10
-68 24 -4 15 -10 17 -33 10 -39 -11 -65 8 -58 44 3 14 1 29 -3 32 -9 5 -11 -2
-13 -40 -1 -26 -26 -33 -26 -8 0 14 -9 21 -31 26 -19 4 -33 13 -36 26 -3 11
-10 20 -15 20 -5 0 -6 -4 -3 -10 13 -21 -7 -31 -27 -13 -15 13 -22 15 -25 6
-3 -7 -13 -13 -23 -13 -24 0 -131 40 -151 57 -8 7 -25 13 -37 13 -34 0 -92 32
-92 51 0 12 -6 16 -18 12 -10 -2 -24 3 -31 11 -8 9 -19 16 -26 16 -14 0 -115
108 -115 123 0 5 -13 22 -30 39 -16 16 -30 38 -30 48 0 23 -27 34 -44 17 -11
-10 -8 -18 16 -46 16 -18 27 -39 24 -46 -3 -8 5 -16 19 -19 26 -7 82 -72 71
-83 -5 -6 -67 21 -126 56 -8 4 -41 20 -72 35 -32 14 -58 30 -58 35 0 5 -9 13
-20 16 -13 4 -20 15 -20 32 0 22 -2 24 -15 13 -13 -10 -19 -9 -36 6 -12 10
-31 18 -43 16 -30 -4 -106 52 -106 78 0 24 -41 44 -52 26 -10 -15 -80 24 -93
52 -5 11 -17 23 -27 25 -10 3 -21 13 -25 24 -5 10 -15 18 -23 18 -8 0 -17 9
-20 20 -5 21 -21 29 -57 27 -13 -1 -38 13 -59 33 -20 19 -40 35 -44 35 -9 0
-112 80 -122 94 -4 6 -4 14 -2 18 3 4 -1 8 -9 8 -21 0 -50 37 -44 55 8 19 10
19 58 -5z m694 -291 c10 -15 -1 -23 -20 -15 -9 3 -13 10 -10 16 8 13 22 13 30
-1z m218 -91 c44 -23 75 -44 70 -45 -12 -4 -193 63 -207 77 -4 4 -5 13 -2 19
8 13 34 4 139 -51z m-7109 -279 c-18 -19 -18 -21 -1 -30 9 -6 17 -20 17 -31 0
-23 -36 -68 -54 -68 -12 0 -66 -54 -66 -65 0 -4 -23 -29 -51 -56 -32 -32 -56
-48 -67 -45 -12 3 -31 -13 -62 -50 -45 -54 -114 -104 -144 -104 -9 0 -33 -15
-53 -34 -52 -46 -98 -68 -128 -60 -18 4 -27 2 -31 -10 -3 -9 -12 -16 -19 -16
-7 0 -19 -7 -26 -16 -12 -15 -10 -16 20 -9 19 4 61 20 95 36 34 16 70 29 82
29 11 0 29 9 39 20 25 27 144 104 152 97 3 -3 13 3 23 15 28 35 40 14 40 -72
0 -114 4 -110 -107 -110 -86 0 -95 -2 -100 -20 -6 -24 -31 -29 -183 -32 -81
-2 -114 0 -113 8 3 15 -68 27 -81 14 -6 -6 -20 -10 -32 -10 -13 0 -26 -4 -29
-10 -8 -14 -58 -13 -72 1 -9 9 -19 9 -42 0 -30 -13 -71 -7 -71 10 0 10 45 30
64 28 22 -3 33 1 56 21 13 11 36 20 51 20 15 0 31 5 34 10 3 6 15 10 25 10 10
0 32 12 47 26 37 34 69 50 119 58 30 5 44 14 52 31 12 26 96 80 111 71 10 -7
56 27 89 66 12 14 43 36 68 48 24 12 76 53 115 91 39 38 77 69 85 69 16 0 84
64 84 79 0 5 15 21 33 35 l32 26 9 -26 c6 -19 4 -30 -10 -45z m6981 19 c14 -6
25 -15 25 -20 0 -4 7 -8 15 -8 22 0 249 -115 264 -134 8 -9 11 -19 7 -23 -10
-10 -289 97 -308 118 -9 11 -25 19 -36 19 -21 0 -38 32 -27 50 8 13 28 13 60
-2z m-6965 -241 c0 -109 -4 -117 -54 -115 -22 0 -69 -2 -103 -7 -54 -7 -63 -6
-63 8 0 17 76 77 97 77 7 0 13 5 13 12 0 17 91 108 102 102 4 -3 8 -38 8 -77z
m7486 -2 c14 -11 15 -14 4 -15 -26 0 -60 12 -60 21 0 14 34 10 56 -6z m1204
-85 c0 -13 -26 -19 -41 -9 -12 8 -12 10 0 18 15 10 41 4 41 -9z m283 -40 c44
-13 47 -27 10 -41 -51 -19 -139 14 -126 47 6 17 39 15 116 -6z m-10905 -35 c4
-9 22 -23 39 -33 38 -20 113 -89 113 -102 0 -5 6 -7 14 -4 8 3 17 1 20 -5 13
-20 -59 -42 -130 -39 l-69 3 -1 35 c-1 19 -6 48 -13 63 -12 31 -15 80 -4 90
10 11 21 8 31 -8z m152 -30 c19 -14 43 -25 53 -25 22 0 87 -37 87 -50 0 -12
-10 -17 -50 -24 -32 -6 -40 -2 -93 46 -56 51 -71 78 -44 78 7 0 28 -11 47 -25z
m10869 -14 c7 -5 10 -14 7 -20 -9 -14 -36 -14 -56 -1 -13 9 -13 11 0 20 18 12
31 12 49 1z m158 -8 c37 -14 -12 -33 -88 -33 -40 0 -54 11 -45 37 5 12 16 14
63 8 31 -4 62 -9 70 -12z m-12311 -147 c-4 -78 -10 -144 -14 -147 -12 -11
-256 -19 -271 -10 -11 7 -2 22 40 68 121 132 233 242 242 236 6 -4 7 -60 3
-147z m12065 143 c32 -17 11 -29 -52 -29 -44 0 -59 4 -59 14 0 23 78 33 111
15z m-191 -20 c0 -5 -7 -9 -15 -9 -15 0 -20 12 -9 23 8 8 24 -1 24 -14z m448
-45 c-19 -19 -137 -26 -138 -9 -2 14 35 23 100 24 50 1 53 0 38 -15z m-173 -9
c0 -11 -188 -20 -212 -10 -8 2 -11 10 -8 15 9 14 220 9 220 -5z m-10601 -15
c7 -7 5 -14 -3 -22 -11 -10 -14 -10 -18 0 -8 20 -26 14 -20 -8 7 -28 -8 -34
-43 -18 -36 15 -38 31 -7 53 23 17 72 14 91 -5z m36 -34 c0 -17 -27 -29 -35
-16 -4 6 -3 15 0 20 9 15 35 12 35 -4z m-202 -13 c-2 -10 -10 -18 -18 -18 -8
-1 -23 -6 -34 -11 -17 -11 -17 -12 -1 -31 17 -20 18 -20 36 -2 14 14 34 19 79
19 33 0 60 -4 60 -10 0 -5 13 -7 30 -4 22 5 31 2 36 -11 4 -9 2 -20 -5 -24
-13 -8 -95 -13 -241 -15 l-95 -1 0 30 c0 26 4 30 30 32 17 0 34 2 39 2 6 1 2
7 -8 14 -16 12 -16 14 -2 26 9 8 26 11 41 7 14 -4 25 -2 25 4 0 5 7 10 16 10
9 0 14 -7 12 -17z m286 -24 c19 -18 21 -26 12 -45 -8 -18 -19 -24 -43 -24 -38
0 -43 16 -10 30 21 8 19 11 -13 14 -22 2 -24 33 -3 39 32 8 35 7 57 -14z"/>
<path d="M8770 2417 c0 -7 14 -23 30 -35 21 -16 30 -18 30 -9 0 7 -13 23 -30
35 -21 16 -30 18 -30 9z"/>
<path d="M9185 2091 c-6 -11 40 -43 49 -34 11 11 6 20 -19 31 -13 6 -27 7 -30
3z"/>
<path d="M9180 931 c0 -17 5 -31 10 -31 6 0 10 11 10 24 0 14 -4 28 -10 31 -6
4 -10 -7 -10 -24z"/>
<path d="M9420 900 c0 -16 5 -30 10 -30 6 0 10 14 10 30 0 17 -4 30 -10 30 -5
0 -10 -13 -10 -30z"/>
<path d="M10050 1681 c0 -11 31 -24 39 -16 3 3 -1 10 -9 15 -19 12 -30 12 -30
1z"/>
<path d="M11110 1239 c0 -5 5 -7 10 -4 6 3 10 8 10 11 0 2 -4 4 -10 4 -5 0
-10 -5 -10 -11z"/>
<path d="M11408 1133 c7 -3 16 -2 19 1 4 3 -2 6 -13 5 -11 0 -14 -3 -6 -6z"/>
<path d="M11330 1111 c0 -5 9 -11 20 -14 13 -3 20 0 20 9 0 8 -9 14 -20 14
-11 0 -20 -4 -20 -9z"/>
<path d="M11544 1089 c-4 -6 -20 -9 -39 -6 -23 4 -32 1 -32 -9 0 -8 8 -14 18
-14 10 0 32 -12 50 -27 25 -21 31 -24 26 -10 -4 10 -7 23 -7 28 0 6 -4 7 -10
4 -5 -3 -10 -2 -10 3 0 6 7 12 15 16 16 6 21 26 6 26 -6 0 -13 -5 -17 -11z"/>
<path d="M11790 994 c0 -8 11 -14 25 -14 14 0 25 4 25 9 0 5 -11 11 -25 13
-17 4 -25 1 -25 -8z"/>
<path d="M3168 1132 c-11 -2 -18 -13 -18 -25 l0 -21 22 22 c24 23 23 30 -4 24z"/>
<path d="M8606 4211 c-4 -7 -5 -15 -2 -18 9 -9 19 4 14 18 -4 11 -6 11 -12 0z"/>
<path d="M5912 3460 c0 -14 2 -19 5 -12 2 6 2 18 0 25 -3 6 -5 1 -5 -13z"/>
<path d="M4552 3396 c1 -10 8 -17 13 -17 15 1 12 24 -3 29 -9 3 -13 -2 -10
-12z"/>
<path d="M5030 3334 c0 -16 11 -37 26 -51 l25 -23 -7 22 c-9 30 -33 78 -39 78
-3 0 -5 -12 -5 -26z"/>
</g>
</svg>
